<?xml version="1.0" standalone="no"?>
<!DOCTYPE svg PUBLIC "-//W3C//DTD SVG 20010904//EN"
 "http://www.w3.org/TR/2001/REC-SVG-20010904/DTD/svg10.dtd">
<svg version="1.0" xmlns="http://www.w3.org/2000/svg"
 width="972.000000pt" height="1098.000000pt" viewBox="0 0 972.000000 1098.000000"
 preserveAspectRatio="xMidYMid meet">

<g transform="translate(0.000000,1098.000000) scale(0.100000,-0.100000)"
fill="#000000" stroke="none">
<path d="M1425 10960 c-583 -49 -1104 -438 -1306 -975 -129 -343 -140 -661
-34 -982 101 -305 305 -552 583 -705 39 -22 72 -44 72 -49 0 -5 -23 -57 -51
-116 -271 -575 -423 -1129 -483 -1763 -82 -869 91 -1577 529 -2165 41 -55 75
-104 75 -109 0 -5 -35 -64 -79 -130 -358 -550 -569 -1132 -612 -1692 -18 -237
16 -515 88 -719 40 -114 146 -323 218 -430 372 -555 1060 -1027 1619 -1110
345 -51 634 24 843 219 230 214 331 544 278 901 -16 105 -64 274 -96 337 -10
20 -19 40 -19 42 0 9 133 73 237 115 377 149 835 249 1293 281 590 41 1268
-56 1795 -257 135 -51 295 -124 295 -135 0 -5 -11 -34 -24 -66 -118 -281 -129
-635 -28 -895 108 -277 337 -473 630 -537 169 -38 451 -20 647 41 540 167
1100 592 1413 1074 75 115 180 326 216 435 175 529 70 1251 -286 1965 -86 172
-171 323 -254 453 l-72 113 84 117 c148 207 276 448 360 680 246 675 228 1572
-51 2520 -67 231 -163 482 -271 711 -30 63 -54 117 -54 122 0 4 33 25 73 47
150 83 270 185 378 325 122 157 207 344 250 549 28 136 31 379 6 518 -77 419
-339 813 -690 1034 -520 328 -1171 318 -1627 -23 -143 -107 -298 -295 -376
-454 -20 -41 -33 -57 -44 -53 -8 2 -104 41 -213 85 -661 270 -1426 401 -2119
362 -453 -25 -795 -86 -1245 -222 -173 -52 -402 -137 -533 -196 -58 -27 -77
-31 -83 -21 -4 7 -29 50 -55 96 -70 122 -127 196 -226 295 -166 165 -366 276
-598 332 -87 21 -132 27 -313 39 -27 2 -91 0 -140 -4z m3960 -584 c553 -69
1076 -219 1520 -437 298 -145 568 -314 803 -501 159 -127 470 -437 586 -583
199 -252 387 -556 522 -845 242 -520 385 -1049 455 -1690 19 -172 16 -596 -4
-754 -55 -411 -192 -793 -400 -1115 -225 -347 -567 -665 -969 -897 -621 -360
-1414 -576 -2408 -656 -199 -16 -1019 -16 -1235 1 -778 58 -1439 203 -2000
440 -595 251 -1076 629 -1383 1089 -329 491 -479 1067 -443 1696 54 917 340
1784 819 2486 164 240 287 385 501 592 268 259 517 443 871 639 522 291 1185
488 1845 548 159 15 767 6 920 -13z"/>
<path d="M2981 7789 c-498 -105 -1058 -547 -1407 -1112 -302 -488 -370 -958
-194 -1334 50 -107 96 -176 178 -264 348 -376 896 -443 1377 -168 484 277 928
865 1108 1469 59 196 72 282 71 480 0 221 -14 284 -98 455 -130 264 -342 424
-636 479 -113 22 -282 19 -399 -5z m49 -630 c162 -26 326 -108 440 -220 94
-91 110 -126 29 -60 -320 261 -774 199 -1003 -136 -144 -211 -150 -512 -15
-740 59 -98 162 -193 266 -245 123 -62 214 -81 351 -76 129 6 236 37 333 98
l64 41 -57 -55 c-105 -100 -242 -165 -404 -193 -83 -13 -114 -14 -195 -5 -197
23 -379 112 -509 248 -296 311 -293 802 7 1112 180 184 442 272 693 231z m316
-324 c105 -31 174 -127 174 -242 0 -76 -16 -117 -64 -171 -144 -159 -409 -72
-424 138 -6 80 3 119 38 171 32 48 79 84 137 105 50 17 79 17 139 -1z m-396
-700 c10 -9 24 -29 30 -45 15 -37 -1 -92 -35 -114 -28 -18 -87 -21 -116 -6
-23 13 -49 61 -49 93 0 29 34 75 64 88 28 12 84 3 106 -16z"/>
<path d="M6330 7795 c-347 -70 -604 -317 -697 -670 -23 -89 -26 -119 -26 -265
0 -140 4 -185 27 -295 91 -442 361 -942 696 -1289 420 -436 885 -613 1321
-502 209 53 351 134 499 285 134 136 214 281 266 476 26 99 27 394 1 515 -71
332 -279 712 -566 1030 -353 392 -728 632 -1111 710 -115 23 -307 26 -410 5z
m635 -640 c176 -37 310 -110 431 -236 83 -87 143 -184 178 -290 113 -340 2
-696 -283 -908 -145 -107 -287 -153 -476 -154 -144 0 -236 22 -354 83 -76 40
-211 142 -211 159 0 5 28 -10 63 -33 92 -61 180 -88 312 -93 137 -6 214 10
344 73 179 87 311 253 357 449 12 52 15 101 11 190 -3 103 -8 132 -35 202 -74
198 -233 355 -422 414 -94 30 -246 36 -344 15 -97 -22 -235 -91 -305 -153 -61
-54 -54 -31 14 45 77 85 203 170 309 209 117 42 288 54 411 28z m-421 -329
c119 -50 182 -190 144 -320 -16 -55 -99 -138 -154 -154 -173 -51 -329 66 -326
245 2 105 56 185 152 227 44 19 141 20 184 2z m343 -688 c29 -14 55 -70 47
-102 -18 -74 -119 -104 -169 -50 -36 39 -35 101 3 136 39 37 66 41 119 16z"/>
<path d="M4670 5790 c-211 -26 -377 -88 -431 -163 -36 -50 -40 -119 -9 -183
53 -109 229 -253 421 -346 l108 -53 1 -76 c0 -113 -20 -167 -90 -243 -81 -86
-136 -111 -250 -111 -77 0 -92 3 -152 33 -80 39 -128 92 -164 183 -29 73 -54
99 -96 99 -40 0 -65 -15 -83 -50 -13 -25 -14 -38 -4 -72 20 -75 70 -161 131
-224 98 -103 220 -154 362 -154 151 0 281 53 382 157 l63 63 64 -63 c163 -163
424 -205 631 -100 28 14 81 56 119 93 75 76 127 172 135 250 4 42 2 49 -28 73
-59 50 -118 29 -145 -52 -36 -110 -110 -183 -223 -223 -155 -55 -343 28 -422
185 -26 53 -30 70 -30 146 l0 86 105 49 c202 94 370 230 428 345 33 68 34 112
3 165 -68 117 -270 182 -586 191 -91 2 -199 0 -240 -5z"/>
</g>
</svg>
