<?xml version="1.0" standalone="no"?>
<!DOCTYPE svg PUBLIC "-//W3C//DTD SVG 20010904//EN"
 "http://www.w3.org/TR/2001/REC-SVG-20010904/DTD/svg10.dtd">
<svg version="1.0"
    xmlns="http://www.w3.org/2000/svg" width="2048.000000pt" height="2048.000000pt" viewBox="0 0 2048.000000 2048.000000" preserveAspectRatio="xMidYMid meet">

    <g transform="translate(0.000000,2048.000000) scale(0.100000,-0.100000)" fill="#000000" stroke="none">
        <path d="M10102 18172 c-20 -6 -14 -27 19 -58 75 -71 219 -273 219 -307 0 -4
-19 4 -42 18 -213 130 -478 215 -672 215 -73 0 -116 -16 -102 -38 3 -6 34 -26
69 -45 61 -35 187 -155 237 -226 22 -31 22 -34 4 -26 -101 43 -215 81 -294 97
-165 34 -410 24 -410 -17 0 -7 30 -30 67 -51 36 -20 92 -62 122 -92 l56 -56
-55 -9 c-642 -106 -1331 -351 -1830 -651 l-125 -75 -9 32 c-26 93 -71 221
-105 292 -84 178 -349 515 -406 515 -7 0 -19 -16 -25 -35 l-11 -34 -89 67
c-136 104 -363 214 -406 198 -16 -6 -16 -39 1 -78 7 -17 4 -17 -34 -4 -58 21
-255 64 -328 72 -69 7 -94 -3 -86 -36 3 -10 14 -26 24 -36 10 -9 19 -21 19
-26 0 -4 -48 -8 -107 -8 -115 0 -205 -11 -290 -36 -66 -18 -72 -44 -15 -73
l37 -19 -30 -12 c-16 -6 -55 -21 -85 -33 -63 -23 -352 -170 -392 -199 -39 -27
-36 -55 5 -66 17 -4 32 -12 32 -18 -1 -5 -47 -41 -103 -79 -189 -131 -230
-195 -124 -195 25 0 24 -3 -30 -57 -74 -77 -143 -165 -168 -213 -24 -47 -25
-60 -5 -60 19 0 20 5 -19 -81 -34 -74 -96 -242 -96 -260 0 -22 32 -19 61 5 17
15 33 25 35 24 1 -2 -2 -24 -8 -48 -20 -81 -14 -369 11 -515 13 -71 29 -144
36 -162 12 -29 49 -52 63 -39 3 4 16 -31 29 -76 45 -156 132 -292 229 -359 28
-19 44 -37 44 -50 0 -41 114 -121 269 -189 95 -41 267 -85 398 -101 l101 -12
-33 -91 c-18 -50 -83 -255 -144 -456 -197 -643 -275 -856 -555 -1512 -192
-449 -260 -649 -280 -823 -12 -94 4 -91 112 23 53 56 100 103 103 102 3 0 -4
-35 -17 -78 -50 -174 -74 -455 -55 -636 12 -106 57 -304 82 -359 7 -15 18 -27
24 -27 16 0 27 28 65 169 46 171 49 173 72 61 44 -222 193 -577 323 -770 188
-279 482 -559 790 -752 47 -29 85 -56 85 -59 0 -4 -33 -53 -73 -110 -325 -466
-521 -910 -602 -1371 -114 -647 9 -1240 346 -1669 l21 -26 -40 -139 c-82 -286
-135 -585 -154 -873 l-11 -173 -35 -52 c-326 -484 -262 -1215 163 -1851 238
-357 491 -580 825 -731 280 -125 671 -243 1030 -308 47 -9 139 -27 205 -40
312 -66 598 -54 875 35 98 32 271 125 344 185 66 54 149 147 183 204 13 23 23
30 38 26 20 -5 243 -29 385 -42 340 -30 930 -15 1245 32 199 29 177 31 200
-12 11 -20 58 -77 105 -125 165 -168 366 -268 645 -320 151 -28 417 -31 565
-6 248 42 689 158 962 254 442 153 692 327 934 649 236 314 398 664 460 999
26 139 26 433 1 560 -38 186 -113 375 -200 505 -34 50 -37 61 -37 125 0 229
-74 661 -166 971 l-36 121 40 53 c183 242 307 566 353 925 18 137 6 511 -20
657 -68 383 -194 733 -390 1081 -86 153 -181 301 -268 416 -34 46 -63 87 -63
92 0 4 17 18 38 30 141 87 389 286 502 405 307 323 525 743 594 1147 l12 72
23 -60 c13 -33 36 -109 52 -169 41 -157 51 -161 89 -36 83 275 85 645 6 933
-14 48 -21 87 -16 87 4 0 51 -46 103 -102 107 -115 123 -119 113 -29 -19 158
-90 367 -263 774 -267 626 -373 921 -613 1696 -50 161 -102 321 -115 354 -14
33 -22 63 -19 68 3 5 27 9 54 9 27 0 97 9 156 21 259 50 493 160 534 251 12
27 33 49 71 73 94 59 182 203 216 357 17 74 19 78 45 78 40 0 55 30 80 165 17
97 21 158 22 315 0 108 -5 214 -11 238 -12 46 -6 53 22 22 21 -23 53 -26 61
-7 6 15 -47 166 -95 271 -22 49 -28 72 -20 77 27 16 -28 108 -148 246 -29 33
-53 63 -53 66 0 2 14 7 30 11 17 3 33 13 37 22 8 22 -53 82 -157 154 -47 33
-96 68 -110 79 -24 19 -24 20 -5 26 81 26 72 43 -59 119 -112 65 -314 161
-389 186 l-39 12 36 24 c20 14 36 32 36 40 0 35 -146 64 -335 67 -63 1 -115 4
-115 6 0 3 8 14 19 25 27 30 34 61 17 75 -20 17 -218 -17 -344 -58 -52 -17
-95 -31 -97 -31 -2 0 1 15 6 32 11 42 3 68 -22 68 -65 0 -367 -170 -443 -249
-17 -17 -32 -31 -36 -31 -3 0 -7 15 -8 32 -6 79 -41 62 -162 -78 -96 -111
-192 -248 -240 -344 -37 -73 -95 -232 -110 -300 -6 -30 -13 -61 -15 -67 -3 -8
-24 1 -62 26 -237 157 -720 382 -1038 484 -286 92 -487 140 -875 212 -138 25
-206 42 -235 59 -22 13 -80 65 -130 116 -185 188 -361 321 -502 380 -74 31
-157 50 -181 42z m398 -301 c30 -25 118 -106 194 -179 175 -166 206 -183 424
-222 570 -103 936 -212 1367 -405 349 -156 730 -398 1022 -649 306 -263 552
-547 733 -846 202 -333 327 -649 569 -1440 162 -530 251 -773 485 -1324 136
-319 250 -605 244 -611 -2 -3 -26 12 -54 31 -59 42 -137 84 -159 84 -22 0 -19
-24 21 -140 77 -229 104 -391 104 -631 0 -159 -9 -222 -24 -164 -4 14 -24 63
-45 108 -39 86 -84 147 -106 147 -15 0 -25 -44 -25 -110 0 -114 -69 -412 -137
-595 -14 -38 -59 -136 -100 -216 -340 -676 -1109 -1197 -2258 -1528 -373 -107
-1122 -271 -1518 -332 l-144 -22 -29 20 c-97 68 -302 149 -459 181 -198 40
-357 37 -574 -10 -156 -33 -377 -122 -473 -189 -26 -19 -29 -19 -190 6 -469
72 -986 181 -1533 325 -693 181 -1273 445 -1720 783 -287 217 -514 490 -666
801 -107 217 -196 517 -221 741 -14 124 -16 135 -33 135 -7 0 -23 -13 -34 -29
-21 -29 -90 -167 -112 -223 -12 -32 -12 -32 -21 47 -12 100 5 361 32 496 10
54 37 155 59 227 42 132 49 172 31 172 -19 0 -93 -41 -159 -88 -36 -25 -62
-39 -59 -31 3 8 32 79 63 159 31 80 119 291 195 470 235 552 358 884 480 1300
263 897 438 1291 776 1740 176 234 473 525 744 729 204 153 477 318 725 437
452 216 900 354 1465 449 103 18 120 26 120 59 -1 35 -39 109 -78 149 l-36 37
34 0 c50 0 252 -53 336 -88 39 -16 106 -48 149 -71 43 -22 81 -38 86 -35 5 3
9 24 9 48 0 56 -60 180 -134 274 -32 39 -55 72 -53 72 3 0 36 -9 73 -21 167
-51 329 -135 523 -270 67 -47 87 -56 98 -47 10 8 12 23 8 52 -9 54 -68 197
-111 267 -19 31 -34 60 -34 64 0 9 51 -29 130 -94z m42 -8920 c212 -37 421
-121 588 -239 87 -61 252 -229 321 -327 69 -97 163 -271 154 -285 -3 -5 -13
-10 -21 -10 -8 0 -54 -16 -101 -35 -47 -20 -86 -35 -87 -33 -2 2 -20 35 -40
73 -125 231 -353 444 -574 535 -148 62 -250 82 -422 84 -172 1 -257 -11 -394
-56 -170 -55 -351 -171 -476 -304 -57 -61 -145 -187 -193 -274 -12 -22 -23
-31 -35 -27 -105 30 -197 58 -200 61 -7 8 67 144 129 235 75 113 227 274 330
351 286 213 679 309 1021 251z m-24 -302 c316 -46 619 -269 801 -591 l32 -57
-43 -27 c-141 -86 -248 -185 -323 -299 -58 -86 -114 -200 -136 -273 l-13 -43
-26 58 c-45 97 -120 162 -288 249 l-92 47 0 143 c0 79 4 144 9 144 29 0 79
-51 106 -108 27 -57 33 -62 55 -58 14 3 73 11 133 18 73 8 107 16 107 24 0 23
-46 140 -72 185 -64 109 -160 182 -279 212 l-54 14 -3 57 -3 56 -99 0 -100 0
0 -59 c0 -58 0 -58 -32 -64 -180 -30 -324 -189 -336 -370 -11 -182 87 -331
282 -426 l86 -42 0 -154 c0 -85 -4 -155 -9 -155 -4 0 -29 18 -55 41 -35 31
-49 53 -62 94 l-15 54 -86 3 -86 3 -19 70 c-65 242 -242 460 -470 580 -49 26
-88 52 -88 58 0 20 77 145 130 212 251 315 636 464 1048 404z m-118 -338 l5
-54 61 -13 c148 -30 264 -137 320 -297 8 -22 13 -41 11 -43 -1 -1 -47 -10
-101 -19 -101 -16 -115 -13 -116 21 0 26 -64 97 -103 115 -80 36 -77 41 -77
-155 l0 -175 101 -51 c118 -59 148 -78 207 -134 75 -71 87 -103 87 -236 0
-112 -1 -117 -35 -180 -61 -113 -153 -186 -267 -210 -103 -22 -93 -12 -93 -95
l0 -75 -68 0 -69 0 5 55 c7 90 2 100 -72 118 -84 21 -162 59 -214 105 l-40 37
-5 128 -5 127 33 0 c18 0 46 3 64 6 24 5 32 3 37 -12 29 -89 57 -125 125 -159
81 -41 79 -44 79 113 0 75 -3 160 -6 187 l-7 50 -89 44 c-211 103 -310 271
-264 449 41 160 140 256 296 285 l60 12 0 51 c0 29 5 54 10 56 6 2 36 3 68 3
l57 0 5 -54z m435 -1451 c10 -36 36 -109 58 -163 22 -54 38 -99 36 -101 -22
-16 -115 -68 -154 -85 -273 -121 -715 -102 -939 39 l-47 30 20 33 c27 44 85
198 100 267 23 99 18 94 59 62 50 -40 132 -80 195 -96 l52 -13 5 -79 5 -79
103 -3 102 -3 0 76 c0 52 4 77 13 79 160 43 268 110 322 202 l30 51 11 -76 c6
-42 19 -105 29 -141z m146 -337 c13 -21 42 -64 66 -95 24 -31 43 -59 43 -62 0
-2 -35 -24 -78 -49 -253 -142 -563 -204 -839 -166 -188 25 -469 124 -551 195
-2 1 20 31 50 66 29 36 62 77 73 93 l21 28 39 -25 c54 -34 183 -82 280 -104
64 -15 118 -19 265 -18 165 1 195 4 282 27 100 26 249 90 295 126 14 12 27 21
29 21 1 0 13 -17 25 -37z m-4756 -250 c267 -244 589 -405 965 -482 466 -95
1069 -67 1557 73 319 92 557 208 735 359 l67 57 103 -54 c118 -63 266 -115
418 -147 154 -33 387 -32 560 4 170 34 262 67 411 144 l126 66 69 -55 c97 -78
231 -163 347 -221 194 -96 564 -202 887 -252 137 -22 526 -31 686 -16 487 44
922 237 1250 553 l51 49 36 -143 c68 -261 109 -484 125 -675 4 -51 5 -93 1
-93 -3 0 -14 9 -24 20 -28 31 -154 115 -235 155 -182 91 -377 132 -590 122
-228 -11 -436 -68 -665 -181 -201 -99 -377 -225 -598 -425 l-89 -80 -107 0
c-456 1 -751 -235 -991 -795 -205 -477 -252 -992 -120 -1325 11 -30 19 -56 16
-58 -8 -8 -237 -40 -391 -55 -213 -20 -784 -17 -1015 5 -249 24 -295 31 -292
42 1 6 18 55 37 110 47 139 65 254 65 424 0 398 -146 864 -380 1215 -163 243
-350 371 -615 421 -71 14 -124 16 -250 12 l-160 -5 -75 67 c-349 313 -655 493
-980 576 -140 36 -228 47 -390 46 -215 0 -362 -32 -525 -114 -68 -34 -189
-114 -238 -156 l-33 -29 3 31 c18 235 46 421 93 626 33 146 63 261 68 261 2 0
41 -34 87 -77z m2021 -1617 c144 -67 248 -242 248 -421 1 -65 -4 -88 -22 -123
-61 -115 -198 -109 -310 12 -148 163 -189 446 -77 534 37 29 96 28 161 -2z
m623 -5 c106 -55 180 -217 169 -372 -12 -167 -114 -216 -216 -104 -73 78 -112
185 -114 307 -2 87 14 140 49 168 32 25 63 25 112 1z m3132 -12 c36 -38 49
-85 49 -172 0 -222 -197 -442 -294 -327 -83 99 -49 331 66 456 73 79 132 93
179 43z m664 9 c66 -51 83 -177 45 -317 -36 -127 -118 -238 -212 -285 -94 -47
-168 -25 -217 64 -20 35 -25 58 -25 119 0 166 102 348 235 417 59 31 136 32
174 2z m450 -498 c8 0 30 -14 49 -31 121 -105 13 -431 -172 -520 -64 -32 -129
-35 -170 -10 -69 44 -94 128 -68 229 30 119 113 244 193 293 41 26 121 50 141
43 8 -2 20 -4 27 -4z m-5338 -30 c74 -37 141 -107 184 -191 60 -120 72 -204
39 -276 -25 -56 -70 -83 -135 -83 -65 0 -118 26 -177 83 -102 99 -153 222
-146 353 3 73 5 77 41 110 50 46 108 47 194 4z m1271 -441 c161 -53 253 -181
268 -374 11 -132 -43 -298 -135 -412 -184 -232 -536 -346 -746 -241 -97 49
-169 137 -201 246 -83 284 59 592 336 732 160 80 328 98 478 49z m2997 5 c232
-56 422 -237 480 -459 21 -79 21 -233 0 -309 -32 -120 -116 -226 -212 -267
-178 -76 -442 -21 -631 131 -161 131 -244 295 -244 483 1 153 50 274 143 346
114 91 284 118 464 75z"/>
        <path d="M8364 14819 c-164 -16 -314 -66 -464 -155 -184 -108 -338 -258 -540
-524 -68 -91 -192 -246 -275 -345 -262 -314 -375 -474 -465 -660 -162 -334
-191 -637 -90 -918 115 -316 427 -573 795 -654 110 -24 329 -22 437 5 244 60
450 182 653 387 144 144 223 253 560 770 216 330 336 609 379 881 20 127 21
345 1 455 -37 211 -136 404 -274 532 -181 167 -452 252 -717 226z m85 -745
c143 -32 300 -128 401 -243 52 -61 59 -82 11 -37 -44 42 -143 96 -226 123 -70
23 -97 27 -215 27 -148 1 -204 -11 -315 -66 -170 -84 -297 -244 -346 -436 -24
-95 -25 -250 -3 -341 51 -208 194 -386 379 -472 110 -51 172 -64 300 -64 122
1 216 23 313 75 28 15 52 24 52 20 0 -16 -104 -102 -170 -140 -318 -186 -719
-124 -972 149 -78 84 -157 233 -190 356 -31 117 -31 320 0 428 131 456 546
719 981 621z m252 -337 c52 -28 104 -99 114 -157 16 -93 -43 -202 -129 -241
-209 -95 -398 166 -248 342 68 79 175 102 263 56z m-391 -347 c26 -26 25 -68
-2 -97 -60 -64 -162 21 -108 90 27 34 80 37 110 7z"/>
        <path d="M11860 14815 c-314 -51 -568 -255 -676 -542 -57 -152 -68 -223 -68
-433 0 -223 15 -313 85 -525 76 -230 141 -345 452 -815 201 -302 283 -407 431
-555 123 -121 190 -173 329 -253 310 -177 664 -197 971 -54 389 183 608 490
623 873 9 222 -32 402 -146 634 -90 183 -195 330 -468 658 -74 89 -196 243
-271 342 -144 191 -299 356 -417 443 -244 181 -578 271 -845 227z m545 -741
c328 -88 562 -353 624 -708 42 -235 -43 -526 -206 -706 -94 -104 -219 -179
-369 -222 -119 -34 -296 -31 -419 6 -141 43 -280 126 -338 202 -13 17 -1 14
61 -17 268 -132 594 -69 798 154 76 84 119 156 157 264 29 81 31 98 31 218 0
114 -3 140 -27 210 -70 210 -221 366 -426 439 -80 28 -96 31 -221 30 -122 0
-143 -2 -215 -28 -77 -26 -245 -127 -245 -147 0 -5 -5 -9 -11 -9 -14 0 19 44
82 111 103 106 245 182 399 215 80 17 241 11 325 -12z m-423 -335 c45 -23 95
-83 108 -129 43 -154 -59 -291 -215 -291 -168 0 -268 186 -181 336 61 103 181
138 288 84z m278 -334 c53 -27 50 -102 -5 -127 -35 -16 -76 0 -94 37 -12 25
-12 32 0 54 8 14 26 31 39 38 31 16 25 16 60 -2z"/>
        <path d="M10075 12224 c-213 -23 -430 -96 -520 -175 -107 -94 -107 -249 0
-368 52 -58 147 -118 331 -211 147 -74 207 -99 277 -114 l27 -6 0 -180 0 -180
-37 -41 c-77 -85 -254 -182 -400 -220 -364 -94 -764 66 -914 364 -21 44 -39
86 -39 93 0 8 -4 14 -9 14 -38 0 -8 -155 47 -251 109 -188 342 -325 594 -348
l71 -6 17 -50 c26 -75 82 -181 138 -260 158 -223 365 -325 632 -312 167 8 296
62 426 181 96 87 217 295 240 412 6 31 6 31 87 37 266 21 505 170 611 380 39
78 63 177 48 203 -7 12 -18 -3 -51 -70 -156 -315 -555 -482 -924 -387 -150 39
-369 167 -421 246 -24 36 -37 372 -15 378 8 3 41 12 74 22 85 24 333 145 430
210 115 76 177 147 199 224 55 195 -107 332 -469 397 -87 15 -368 26 -450 18z
m425 -137 c85 -22 111 -37 108 -61 -2 -17 -15 -24 -63 -34 -91 -19 -382 -27
-505 -13 -138 16 -172 27 -168 54 4 25 71 51 170 66 89 14 390 6 458 -12z
m-134 -1648 c90 -15 181 -48 261 -91 40 -22 75 -43 78 -48 9 -14 -73 -96 -137
-138 -104 -67 -173 -86 -313 -87 -125 0 -195 16 -300 68 -54 26 -141 94 -166
128 l-20 28 48 35 c127 94 362 139 549 105z"/>
        <path d="M10196 8005 c-49 -49 -61 -97 -37 -150 18 -40 75 -95 99 -95 9 0 12
41 12 140 0 133 -1 140 -20 140 -10 0 -35 -16 -54 -35z m44 -107 l-1 -103 -24
28 c-44 49 -45 99 -4 150 11 15 22 27 25 27 2 0 4 -46 4 -102z"/>
        <path d="M10400 7244 l0 -155 23 6 c49 15 83 43 105 85 38 75 12 146 -72 195
-24 14 -46 25 -49 25 -4 0 -7 -70 -7 -156z m79 71 c50 -58 37 -140 -30 -175
-18 -10 -19 -6 -19 100 0 60 4 110 9 110 5 0 23 -16 40 -35z"/>
    </g>
</svg>
